<svg xmlns="http://www.w3.org/2000/svg" width="330.984" height="372.632" viewBox="0 0 330.984 372.632"><defs><style>.a{fill:#034ea2;}.b{fill:#064489;}.c,.e{fill:#fff;}.d{fill:#62b7e9;}.e{opacity:0.5;mix-blend-mode:soft-light;}.e,.j{isolation:isolate;}.f{fill:#489fff;}.g{fill:none;stroke:#b6cedb;stroke-miterlimit:10;stroke-width:9.978px;}.h{fill:#bdddf4;}.i{fill:#89cbf2;}.j{fill:#8ab5cc;mix-blend-mode:multiply;}.k{fill:#b5daf6;}</style></defs><g transform="translate(-165.563 -339.023)"><g transform="translate(239.908 339.023)"><path class="a" d="M701.5,801.346a7.5,7.5,0,0,1-7.5,7.5H461.018a7.5,7.5,0,0,1-7.5-7.5v-323.8a7.5,7.5,0,0,1,7.5-7.5H693.994a7.5,7.5,0,0,1,7.5,7.5Z" transform="translate(-453.516 -436.216)"/><rect class="b" width="215.241" height="291.24" transform="translate(22.21 67.381)"/><path class="b" d="M1393.589,470.043h-8.659a7.5,7.5,0,0,1,7.5,7.5v323.8a7.5,7.5,0,0,1-7.5,7.5h8.659a7.5,7.5,0,0,0,7.5-7.5v-323.8A7.5,7.5,0,0,0,1393.589,470.043Z" transform="translate(-1144.452 -436.216)"/><rect class="c" width="215.241" height="291.238" transform="translate(16.369 61.071)"/><rect class="d" width="123.948" height="48.424" transform="translate(62.016 24.839)"/><rect class="e" width="28.786" height="48.424" transform="translate(157.178 24.839)"/><path class="f" d="M710.916,468.431v-33.2h-17.2v48.424H817.663V468.431Z" transform="translate(-631.699 -410.391)"/><g transform="translate(78.239)"><path class="d" d="M764.678,364.876V351.889a4.744,4.744,0,0,1,4.739-4.738h65.772a4.741,4.741,0,0,1,4.734,4.738v12.987h8.129V351.889a12.878,12.878,0,0,0-12.863-12.866H769.417a12.88,12.88,0,0,0-12.866,12.866v12.987Z" transform="translate(-756.551 -339.023)"/></g><g transform="translate(36.672 111.402)"><g transform="translate(63.108 5.508)"><line class="g" x2="71.442"/><line class="g" x2="34.134" transform="translate(77.603)"/><g transform="translate(0 28.552)"><line class="g" x1="71.44" transform="translate(40.297)"/><line class="g" x1="34.131"/></g><g transform="translate(0 42.83)"><line class="g" x2="27.35"/><line class="g" x2="42.45" transform="translate(31.744)"/></g><g transform="translate(0 14.276)"><line class="g" x2="27.35"/><line class="g" x2="26.873" transform="translate(31.744)"/><line class="g" x2="50.327" transform="translate(61.41)"/></g></g><g transform="translate(0 76.381)"><line class="g" x2="111.656"/><line class="g" x2="53.346" transform="translate(121.29)"/><g transform="translate(0 28.552)"><line class="g" x1="111.656" transform="translate(62.979)"/><line class="g" x1="53.346"/></g><g transform="translate(0 42.827)"><line class="g" x2="42.744"/><line class="g" x2="66.345" transform="translate(49.611)"/></g><g transform="translate(0 14.273)"><line class="g" x2="42.744"/><line class="g" x2="42.007" transform="translate(49.611)"/><line class="g" x2="78.658" transform="translate(95.977)"/></g></g><g transform="translate(0 147.751)"><line class="g" x2="111.656"/><line class="g" x2="53.346" transform="translate(121.29)"/><g transform="translate(0 28.551)"><line class="g" x1="111.656" transform="translate(62.979)"/><line class="g" x1="53.346"/></g><g transform="translate(0 42.829)"><line class="g" x2="42.744"/><line class="g" x2="66.345" transform="translate(49.611)"/></g><g transform="translate(0 14.276)"><line class="g" x2="42.744"/><line class="g" x2="42.007" transform="translate(49.611)"/><line class="g" x2="78.658" transform="translate(95.977)"/></g></g><g transform="translate(0.007)"><path class="h" d="M649.432,797.426A26.925,26.925,0,1,1,622.508,770.5,26.927,26.927,0,0,1,649.432,797.426Z" transform="translate(-595.582 -770.504)"/><g transform="translate(9.906 9.903)"><rect class="c" width="9.557" height="34.04" transform="translate(12.239)"/><rect class="c" width="34.037" height="9.561" transform="translate(0 12.24)"/></g></g></g></g><g transform="translate(165.563 523.55)"><path class="a" d="M319.718,1090.855c-57.234,0-76.422-37.125-76.422-37.125s-19.189,37.125-76.422,37.125c0,0-17.631,110.142,76.422,150.98C337.349,1201,319.718,1090.855,319.718,1090.855Z" transform="translate(-165.563 -1053.73)"/><path class="i" d="M348.74,1172.892c-31.224-3.084-51.16-16.417-62.734-27.7-11.574,11.284-31.511,24.616-62.734,27.7a167.247,167.247,0,0,0,3.948,43.629c8.278,35.719,28.04,61.522,58.786,76.794,30.745-15.272,50.508-41.075,58.785-76.794A167.268,167.268,0,0,0,348.74,1172.892Z" transform="translate(-208.273 -1121.577)"/><g transform="translate(42.462 58.784)"><rect class="c" width="19.804" height="70.539" transform="translate(25.369)"/><rect class="c" width="70.54" height="19.801" transform="translate(0 25.37)"/></g><path class="j" d="M242.682,1057.9c-3.66,6.063-24.356,36.048-75.8,36.048,0,0-17.543,109.645,75.8,150.7Z" transform="translate(-165.568 -1056.825)"/><path class="k" d="M539.05,1252.716c-1.472,4.777-12.221,5.706-24.01,2.077s-20.153-10.446-18.684-15.225,12.223-5.708,24.011-2.078S540.521,1247.937,539.05,1252.716Z" transform="translate(-410.825 -1188.402)"/></g></g></svg>